<svg width="17" height="17" viewBox="0 0 17 17" fill="none" xmlns="http://www.w3.org/2000/svg">
<path d="M7.46875 1.65625C4.5625 2.25 2.21875 4.59375 1.625 7.5C0.78125 11.9062 3.78125 15.8438 7.84375 16.4062C8.4375 16.5 9 16.0312 9 15.4375V15.4062C9 14.9375 8.625 14.5 8.15625 14.4375C5.5 14.0312 3.5 11.75 3.5 9C3.5 5.78125 6.25 3.1875 9.53125 3.5C12.375 3.78125 14.5 6.375 14.5 9.25V9.75C14.5 10.4375 13.9375 11 13.25 11C12.5312 11 12 10.4375 12 9.75V6C12 5.71875 11.75 5.5 11.5 5.5H10.5C10.25 5.5 10.0625 5.65625 10 5.84375C9.25 5.46875 8.3125 5.34375 7.3125 5.6875C6.125 6.125 5.1875 7.21875 5.03125 8.5C4.71875 10.6562 6.375 12.5 8.5 12.5C9.3125 12.5 10.0625 12.1875 10.6562 11.7188C11.4062 12.6875 12.6875 13.25 14.0938 12.9062C15.5312 12.5625 16.5 11.1562 16.4688 9.6875V9.03125C16.4688 4.375 12.2812 0.71875 7.46875 1.65625ZM8.46875 10.5312C7.625 10.5312 6.96875 9.84375 6.96875 9.03125C6.96875 8.1875 7.625 7.53125 8.46875 7.53125C9.28125 7.53125 9.96875 8.1875 9.96875 9.03125C9.96875 9.84375 9.3125 10.5312 8.46875 10.5312Z" fill="#B4B4B4"/>
</svg>
