<svg width="352" height="187" viewBox="0 0 352 187" fill="none" xmlns="http://www.w3.org/2000/svg">
<rect opacity="0.2" width="277" height="40" rx="4" fill="#07DDDA"/>
<rect width="80" height="40" rx="4" fill="#07DDDA"/>
<path d="M5.852 69.084C5.11467 69.084 4.43333 68.9627 3.808 68.72C3.18267 68.468 2.64133 68.118 2.184 67.67C1.72667 67.222 1.36733 66.6947 1.106 66.088C0.854 65.4813 0.728 64.8187 0.728 64.1C0.728 63.3813 0.854 62.7187 1.106 62.112C1.36733 61.5053 1.72667 60.978 2.184 60.53C2.65067 60.082 3.19667 59.7367 3.822 59.494C4.44733 59.242 5.12867 59.116 5.866 59.116C6.57533 59.116 7.24267 59.2373 7.868 59.48C8.49333 59.7133 9.02067 60.068 9.45 60.544L8.792 61.202C8.39067 60.7913 7.94733 60.4973 7.462 60.32C6.97667 60.1333 6.454 60.04 5.894 60.04C5.306 60.04 4.76 60.1427 4.256 60.348C3.752 60.544 3.31333 60.8287 2.94 61.202C2.56667 61.566 2.27267 61.9953 2.058 62.49C1.85267 62.9753 1.75 63.512 1.75 64.1C1.75 64.688 1.85267 65.2293 2.058 65.724C2.27267 66.2093 2.56667 66.6387 2.94 67.012C3.31333 67.376 3.752 67.6607 4.256 67.866C4.76 68.062 5.306 68.16 5.894 68.16C6.454 68.16 6.97667 68.0667 7.462 67.88C7.94733 67.6933 8.39067 67.3947 8.792 66.984L9.45 67.642C9.02067 68.118 8.49333 68.4773 7.868 68.72C7.24267 68.9627 6.57067 69.084 5.852 69.084ZM15.9451 69V67.376L15.9031 67.11V64.394C15.9031 63.7687 15.7258 63.288 15.3711 62.952C15.0258 62.616 14.5078 62.448 13.8171 62.448C13.3411 62.448 12.8885 62.5273 12.4591 62.686C12.0298 62.8447 11.6658 63.0547 11.3671 63.316L10.9191 62.574C11.2925 62.2567 11.7405 62.014 12.2631 61.846C12.7858 61.6687 13.3365 61.58 13.9151 61.58C14.8671 61.58 15.5998 61.818 16.1131 62.294C16.6358 62.7607 16.8971 63.4747 16.8971 64.436V69H15.9451ZM13.4111 69.07C12.8605 69.07 12.3798 68.9813 11.9691 68.804C11.5678 68.6173 11.2598 68.3653 11.0451 68.048C10.8305 67.7213 10.7231 67.348 10.7231 66.928C10.7231 66.5453 10.8118 66.2 10.9891 65.892C11.1758 65.5747 11.4745 65.3227 11.8851 65.136C12.3051 64.94 12.8651 64.842 13.5651 64.842H16.0991V65.584H13.5931C12.8838 65.584 12.3891 65.71 12.1091 65.962C11.8385 66.214 11.7031 66.5267 11.7031 66.9C11.7031 67.32 11.8665 67.656 12.1931 67.908C12.5198 68.16 12.9771 68.286 13.5651 68.286C14.1251 68.286 14.6058 68.16 15.0071 67.908C15.4178 67.6467 15.7165 67.2733 15.9031 66.788L16.1271 67.474C15.9405 67.9593 15.6138 68.3467 15.1471 68.636C14.6898 68.9253 14.1111 69.07 13.4111 69.07ZM28.7809 61.58C29.3783 61.58 29.8963 61.6967 30.3349 61.93C30.7829 62.154 31.1283 62.4993 31.3709 62.966C31.6229 63.4327 31.7489 64.0207 31.7489 64.73V69H30.7549V64.828C30.7549 64.0533 30.5683 63.47 30.1949 63.078C29.8309 62.6767 29.3129 62.476 28.6409 62.476C28.1369 62.476 27.6983 62.5833 27.3249 62.798C26.9609 63.0033 26.6763 63.3067 26.4709 63.708C26.2749 64.1 26.1769 64.576 26.1769 65.136V69H25.1829V64.828C25.1829 64.0533 24.9963 63.47 24.6229 63.078C24.2496 62.6767 23.7269 62.476 23.0549 62.476C22.5603 62.476 22.1263 62.5833 21.7529 62.798C21.3796 63.0033 21.0903 63.3067 20.8849 63.708C20.6889 64.1 20.5909 64.576 20.5909 65.136V69H19.5969V61.65H20.5489V63.638L20.3949 63.288C20.6189 62.756 20.9783 62.3407 21.4729 62.042C21.9769 61.734 22.5696 61.58 23.2509 61.58C23.9696 61.58 24.5809 61.762 25.0849 62.126C25.5889 62.4807 25.9156 63.0173 26.0649 63.736L25.6729 63.582C25.8876 62.9847 26.2656 62.504 26.8069 62.14C27.3576 61.7667 28.0156 61.58 28.7809 61.58ZM38.2386 69.07C37.6039 69.07 37.0299 68.9253 36.5166 68.636C36.0033 68.3373 35.5926 67.9127 35.2846 67.362C34.9859 66.802 34.8366 66.1207 34.8366 65.318C34.8366 64.5153 34.9859 63.8387 35.2846 63.288C35.5833 62.728 35.9893 62.3033 36.5026 62.014C37.0159 61.7247 37.5946 61.58 38.2386 61.58C38.9386 61.58 39.5639 61.7387 40.1146 62.056C40.6746 62.364 41.1133 62.8027 41.4306 63.372C41.7479 63.932 41.9066 64.5807 41.9066 65.318C41.9066 66.0647 41.7479 66.718 41.4306 67.278C41.1133 67.838 40.6746 68.2767 40.1146 68.594C39.5639 68.9113 38.9386 69.07 38.2386 69.07ZM34.4446 71.716V61.65H35.3966V63.862L35.2986 65.332L35.4386 66.816V71.716H34.4446ZM38.1686 68.188C38.6913 68.188 39.1579 68.0713 39.5686 67.838C39.9793 67.5953 40.3059 67.2593 40.5486 66.83C40.7913 66.3913 40.9126 65.8873 40.9126 65.318C40.9126 64.7487 40.7913 64.2493 40.5486 63.82C40.3059 63.3907 39.9793 63.0547 39.5686 62.812C39.1579 62.5693 38.6913 62.448 38.1686 62.448C37.6459 62.448 37.1746 62.5693 36.7546 62.812C36.3439 63.0547 36.0173 63.3907 35.7746 63.82C35.5413 64.2493 35.4246 64.7487 35.4246 65.318C35.4246 65.8873 35.5413 66.3913 35.7746 66.83C36.0173 67.2593 36.3439 67.5953 36.7546 67.838C37.1746 68.0713 37.6459 68.188 38.1686 68.188ZM48.4979 69V67.376L48.4559 67.11V64.394C48.4559 63.7687 48.2785 63.288 47.9239 62.952C47.5785 62.616 47.0605 62.448 46.3699 62.448C45.8939 62.448 45.4412 62.5273 45.0119 62.686C44.5825 62.8447 44.2185 63.0547 43.9199 63.316L43.4719 62.574C43.8452 62.2567 44.2932 62.014 44.8159 61.846C45.3385 61.6687 45.8892 61.58 46.4679 61.58C47.4199 61.58 48.1525 61.818 48.6659 62.294C49.1885 62.7607 49.4499 63.4747 49.4499 64.436V69H48.4979ZM45.9639 69.07C45.4132 69.07 44.9325 68.9813 44.5219 68.804C44.1205 68.6173 43.8125 68.3653 43.5979 68.048C43.3832 67.7213 43.2759 67.348 43.2759 66.928C43.2759 66.5453 43.3645 66.2 43.5419 65.892C43.7285 65.5747 44.0272 65.3227 44.4379 65.136C44.8579 64.94 45.4179 64.842 46.1179 64.842H48.6519V65.584H46.1459C45.4365 65.584 44.9419 65.71 44.6619 65.962C44.3912 66.214 44.2559 66.5267 44.2559 66.9C44.2559 67.32 44.4192 67.656 44.7459 67.908C45.0725 68.16 45.5299 68.286 46.1179 68.286C46.6779 68.286 47.1585 68.16 47.5599 67.908C47.9705 67.6467 48.2692 67.2733 48.4559 66.788L48.6799 67.474C48.4932 67.9593 48.1665 68.3467 47.6999 68.636C47.2425 68.9253 46.6639 69.07 45.9639 69.07ZM52.1497 69V61.65H53.1437V69H52.1497ZM52.6537 60.026C52.4483 60.026 52.2757 59.956 52.1357 59.816C51.9957 59.676 51.9257 59.508 51.9257 59.312C51.9257 59.116 51.9957 58.9527 52.1357 58.822C52.2757 58.682 52.4483 58.612 52.6537 58.612C52.859 58.612 53.0317 58.6773 53.1717 58.808C53.3117 58.9387 53.3817 59.102 53.3817 59.298C53.3817 59.5033 53.3117 59.676 53.1717 59.816C53.041 59.956 52.8683 60.026 52.6537 60.026ZM59.0454 71.786C58.3734 71.786 57.7294 71.688 57.1134 71.492C56.4974 71.296 55.9981 71.016 55.6154 70.652L56.1194 69.896C56.4648 70.204 56.8894 70.4467 57.3934 70.624C57.9068 70.8107 58.4481 70.904 59.0174 70.904C59.9508 70.904 60.6368 70.6847 61.0754 70.246C61.5141 69.8167 61.7334 69.1447 61.7334 68.23V66.396L61.8734 65.136L61.7754 63.876V61.65H62.7274V68.104C62.7274 69.3733 62.4148 70.302 61.7894 70.89C61.1734 71.4873 60.2588 71.786 59.0454 71.786ZM58.8634 68.72C58.1634 68.72 57.5334 68.5707 56.9734 68.272C56.4134 67.964 55.9701 67.5393 55.6434 66.998C55.3261 66.4567 55.1674 65.836 55.1674 65.136C55.1674 64.436 55.3261 63.82 55.6434 63.288C55.9701 62.7467 56.4134 62.3267 56.9734 62.028C57.5334 61.7293 58.1634 61.58 58.8634 61.58C59.5168 61.58 60.1048 61.7153 60.6274 61.986C61.1501 62.2567 61.5654 62.658 61.8734 63.19C62.1814 63.722 62.3354 64.3707 62.3354 65.136C62.3354 65.9013 62.1814 66.55 61.8734 67.082C61.5654 67.614 61.1501 68.02 60.6274 68.3C60.1048 68.58 59.5168 68.72 58.8634 68.72ZM58.9614 67.838C59.5028 67.838 59.9834 67.726 60.4034 67.502C60.8234 67.2687 61.1548 66.9513 61.3974 66.55C61.6401 66.1393 61.7614 65.668 61.7614 65.136C61.7614 64.604 61.6401 64.1373 61.3974 63.736C61.1548 63.3347 60.8234 63.022 60.4034 62.798C59.9834 62.5647 59.5028 62.448 58.9614 62.448C58.4294 62.448 57.9488 62.5647 57.5194 62.798C57.0994 63.022 56.7681 63.3347 56.5254 63.736C56.2921 64.1373 56.1754 64.604 56.1754 65.136C56.1754 65.668 56.2921 66.1393 56.5254 66.55C56.7681 66.9513 57.0994 67.2687 57.5194 67.502C57.9488 67.726 58.4294 67.838 58.9614 67.838ZM69.2454 61.58C69.8428 61.58 70.3654 61.6967 70.8134 61.93C71.2708 62.154 71.6254 62.4993 71.8774 62.966C72.1388 63.4327 72.2694 64.0207 72.2694 64.73V69H71.2754V64.828C71.2754 64.0533 71.0794 63.47 70.6874 63.078C70.3048 62.6767 69.7634 62.476 69.0634 62.476C68.5408 62.476 68.0834 62.5833 67.6914 62.798C67.3088 63.0033 67.0101 63.3067 66.7954 63.708C66.5901 64.1 66.4874 64.576 66.4874 65.136V69H65.4934V61.65H66.4454V63.666L66.2914 63.288C66.5248 62.756 66.8981 62.3407 67.4114 62.042C67.9248 61.734 68.5361 61.58 69.2454 61.58ZM78.6184 69V58.612H79.6124V69H78.6184ZM86.9842 69V67.376L86.9422 67.11V64.394C86.9422 63.7687 86.7649 63.288 86.4102 62.952C86.0649 62.616 85.5469 62.448 84.8562 62.448C84.3802 62.448 83.9275 62.5273 83.4982 62.686C83.0689 62.8447 82.7049 63.0547 82.4062 63.316L81.9582 62.574C82.3315 62.2567 82.7795 62.014 83.3022 61.846C83.8249 61.6687 84.3755 61.58 84.9542 61.58C85.9062 61.58 86.6389 61.818 87.1522 62.294C87.6749 62.7607 87.9362 63.4747 87.9362 64.436V69H86.9842ZM84.4502 69.07C83.8995 69.07 83.4189 68.9813 83.0082 68.804C82.6069 68.6173 82.2989 68.3653 82.0842 68.048C81.8695 67.7213 81.7622 67.348 81.7622 66.928C81.7622 66.5453 81.8509 66.2 82.0282 65.892C82.2149 65.5747 82.5135 65.3227 82.9242 65.136C83.3442 64.94 83.9042 64.842 84.6042 64.842H87.1382V65.584H84.6322C83.9229 65.584 83.4282 65.71 83.1482 65.962C82.8775 66.214 82.7422 66.5267 82.7422 66.9C82.7422 67.32 82.9055 67.656 83.2322 67.908C83.5589 68.16 84.0162 68.286 84.6042 68.286C85.1642 68.286 85.6449 68.16 86.0462 67.908C86.4569 67.6467 86.7555 67.2733 86.9422 66.788L87.1662 67.474C86.9795 67.9593 86.6529 68.3467 86.1862 68.636C85.7289 68.9253 85.1502 69.07 84.4502 69.07ZM93.674 69.07C93.0487 69.07 92.5027 68.9533 92.036 68.72C91.5693 68.4867 91.2053 68.1367 90.944 67.67C90.692 67.2033 90.566 66.62 90.566 65.92V61.65H91.56V65.808C91.56 66.592 91.7513 67.1847 92.134 67.586C92.526 67.978 93.072 68.174 93.772 68.174C94.2853 68.174 94.7287 68.0713 95.102 67.866C95.4847 67.6513 95.774 67.3433 95.97 66.942C96.1753 66.5407 96.278 66.06 96.278 65.5V61.65H97.272V69H96.32V66.984L96.474 67.348C96.2407 67.8893 95.8767 68.314 95.382 68.622C94.8967 68.9207 94.3273 69.07 93.674 69.07ZM103.794 61.58C104.392 61.58 104.914 61.6967 105.362 61.93C105.82 62.154 106.174 62.4993 106.426 62.966C106.688 63.4327 106.818 64.0207 106.818 64.73V69H105.824V64.828C105.824 64.0533 105.628 63.47 105.236 63.078C104.854 62.6767 104.312 62.476 103.612 62.476C103.09 62.476 102.632 62.5833 102.24 62.798C101.858 63.0033 101.559 63.3067 101.344 63.708C101.139 64.1 101.036 64.576 101.036 65.136V69H100.042V61.65H100.994V63.666L100.84 63.288C101.074 62.756 101.447 62.3407 101.96 62.042C102.474 61.734 103.085 61.58 103.794 61.58ZM112.555 69.07C111.827 69.07 111.174 68.9113 110.595 68.594C110.026 68.2673 109.578 67.824 109.251 67.264C108.925 66.6947 108.761 66.046 108.761 65.318C108.761 64.5807 108.925 63.932 109.251 63.372C109.578 62.812 110.026 62.3733 110.595 62.056C111.174 61.7387 111.827 61.58 112.555 61.58C113.181 61.58 113.745 61.7013 114.249 61.944C114.753 62.1867 115.15 62.5507 115.439 63.036L114.697 63.54C114.445 63.1667 114.133 62.8913 113.759 62.714C113.386 62.5367 112.98 62.448 112.541 62.448C112.019 62.448 111.547 62.5693 111.127 62.812C110.707 63.0453 110.376 63.3767 110.133 63.806C109.891 64.2353 109.769 64.7393 109.769 65.318C109.769 65.8967 109.891 66.4007 110.133 66.83C110.376 67.2593 110.707 67.5953 111.127 67.838C111.547 68.0713 112.019 68.188 112.541 68.188C112.98 68.188 113.386 68.0993 113.759 67.922C114.133 67.7447 114.445 67.474 114.697 67.11L115.439 67.614C115.15 68.09 114.753 68.454 114.249 68.706C113.745 68.9487 113.181 69.07 112.555 69.07ZM121.034 61.58C121.632 61.58 122.154 61.6967 122.602 61.93C123.06 62.154 123.414 62.4993 123.666 62.966C123.928 63.4327 124.058 64.0207 124.058 64.73V69H123.064V64.828C123.064 64.0533 122.868 63.47 122.476 63.078C122.094 62.6767 121.552 62.476 120.852 62.476C120.33 62.476 119.872 62.5833 119.48 62.798C119.098 63.0033 118.799 63.3067 118.584 63.708C118.379 64.1 118.276 64.576 118.276 65.136V69H117.282V58.612H118.276V63.666L118.08 63.288C118.314 62.756 118.687 62.3407 119.2 62.042C119.714 61.734 120.325 61.58 121.034 61.58ZM129.865 69.07C129.1 69.07 128.428 68.9113 127.849 68.594C127.271 68.2673 126.818 67.824 126.491 67.264C126.165 66.6947 126.001 66.046 126.001 65.318C126.001 64.59 126.155 63.946 126.463 63.386C126.781 62.826 127.21 62.3873 127.751 62.07C128.302 61.7433 128.918 61.58 129.599 61.58C130.29 61.58 130.901 61.7387 131.433 62.056C131.975 62.364 132.399 62.8027 132.707 63.372C133.015 63.932 133.169 64.5807 133.169 65.318C133.169 65.3647 133.165 65.416 133.155 65.472C133.155 65.5187 133.155 65.57 133.155 65.626H126.757V64.884H132.623L132.231 65.178C132.231 64.646 132.115 64.1747 131.881 63.764C131.657 63.344 131.349 63.0173 130.957 62.784C130.565 62.5507 130.113 62.434 129.599 62.434C129.095 62.434 128.643 62.5507 128.241 62.784C127.84 63.0173 127.527 63.344 127.303 63.764C127.079 64.184 126.967 64.6647 126.967 65.206V65.36C126.967 65.92 127.089 66.4147 127.331 66.844C127.583 67.264 127.929 67.5953 128.367 67.838C128.815 68.0713 129.324 68.188 129.893 68.188C130.341 68.188 130.757 68.1087 131.139 67.95C131.531 67.7913 131.867 67.5487 132.147 67.222L132.707 67.866C132.381 68.258 131.97 68.5567 131.475 68.762C130.99 68.9673 130.453 69.07 129.865 69.07ZM137.167 69.07C136.56 69.07 135.986 68.986 135.445 68.818C134.903 68.6407 134.479 68.4213 134.171 68.16L134.619 67.376C134.917 67.6 135.3 67.796 135.767 67.964C136.233 68.1227 136.723 68.202 137.237 68.202C137.937 68.202 138.441 68.0947 138.749 67.88C139.057 67.656 139.211 67.362 139.211 66.998C139.211 66.7273 139.122 66.5173 138.945 66.368C138.777 66.2093 138.553 66.0927 138.273 66.018C137.993 65.934 137.68 65.864 137.335 65.808C136.989 65.752 136.644 65.6867 136.299 65.612C135.963 65.5373 135.655 65.43 135.375 65.29C135.095 65.1407 134.866 64.94 134.689 64.688C134.521 64.436 134.437 64.1 134.437 63.68C134.437 63.2787 134.549 62.9193 134.773 62.602C134.997 62.2847 135.323 62.0373 135.753 61.86C136.191 61.6733 136.723 61.58 137.349 61.58C137.825 61.58 138.301 61.6453 138.777 61.776C139.253 61.8973 139.645 62.0607 139.953 62.266L139.519 63.064C139.192 62.84 138.842 62.6813 138.469 62.588C138.095 62.4853 137.722 62.434 137.349 62.434C136.686 62.434 136.196 62.5507 135.879 62.784C135.571 63.008 135.417 63.2973 135.417 63.652C135.417 63.932 135.501 64.1513 135.669 64.31C135.846 64.4687 136.075 64.5947 136.355 64.688C136.644 64.772 136.957 64.842 137.293 64.898C137.638 64.954 137.979 65.024 138.315 65.108C138.66 65.1827 138.973 65.29 139.253 65.43C139.542 65.5607 139.771 65.752 139.939 66.004C140.116 66.2467 140.205 66.5687 140.205 66.97C140.205 67.3993 140.083 67.7727 139.841 68.09C139.607 68.398 139.262 68.6407 138.805 68.818C138.357 68.986 137.811 69.07 137.167 69.07ZM148.745 69.07C148.017 69.07 147.363 68.9113 146.785 68.594C146.215 68.2673 145.767 67.824 145.441 67.264C145.114 66.6947 144.951 66.046 144.951 65.318C144.951 64.5807 145.114 63.932 145.441 63.372C145.767 62.812 146.215 62.3733 146.785 62.056C147.363 61.7387 148.017 61.58 148.745 61.58C149.37 61.58 149.935 61.7013 150.439 61.944C150.943 62.1867 151.339 62.5507 151.629 63.036L150.887 63.54C150.635 63.1667 150.322 62.8913 149.949 62.714C149.575 62.5367 149.169 62.448 148.731 62.448C148.208 62.448 147.737 62.5693 147.317 62.812C146.897 63.0453 146.565 63.3767 146.323 63.806C146.08 64.2353 145.959 64.7393 145.959 65.318C145.959 65.8967 146.08 66.4007 146.323 66.83C146.565 67.2593 146.897 67.5953 147.317 67.838C147.737 68.0713 148.208 68.188 148.731 68.188C149.169 68.188 149.575 68.0993 149.949 67.922C150.322 67.7447 150.635 67.474 150.887 67.11L151.629 67.614C151.339 68.09 150.943 68.454 150.439 68.706C149.935 68.9487 149.37 69.07 148.745 69.07ZM156.619 69.07C155.994 69.07 155.448 68.9533 154.981 68.72C154.515 68.4867 154.151 68.1367 153.889 67.67C153.637 67.2033 153.511 66.62 153.511 65.92V61.65H154.505V65.808C154.505 66.592 154.697 67.1847 155.079 67.586C155.471 67.978 156.017 68.174 156.717 68.174C157.231 68.174 157.674 68.0713 158.047 67.866C158.43 67.6513 158.719 67.3433 158.915 66.942C159.121 66.5407 159.223 66.06 159.223 65.5V61.65H160.217V69H159.265V66.984L159.419 67.348C159.186 67.8893 158.822 68.314 158.327 68.622C157.842 68.9207 157.273 69.07 156.619 69.07ZM165.312 69.07C164.621 69.07 164.089 68.8833 163.716 68.51C163.342 68.1367 163.156 67.6093 163.156 66.928V60.026H164.15V66.872C164.15 67.3013 164.257 67.6327 164.472 67.866C164.696 68.0993 165.013 68.216 165.424 68.216C165.862 68.216 166.226 68.09 166.516 67.838L166.866 68.552C166.67 68.7293 166.432 68.86 166.152 68.944C165.881 69.028 165.601 69.07 165.312 69.07ZM161.84 62.476V61.65H166.39V62.476H161.84ZM172.507 69V60.726C172.507 60.0727 172.698 59.5453 173.081 59.144C173.464 58.7427 174.014 58.542 174.733 58.542C175.013 58.542 175.284 58.5793 175.545 58.654C175.806 58.7287 176.026 58.8453 176.203 59.004L175.867 59.746C175.727 59.6247 175.564 59.536 175.377 59.48C175.19 59.4147 174.99 59.382 174.775 59.382C174.355 59.382 174.033 59.4987 173.809 59.732C173.585 59.9653 173.473 60.3107 173.473 60.768V61.888L173.501 62.35V69H172.507ZM171.191 62.476V61.65H175.741V62.476H171.191ZM177.083 69V61.65H178.035V63.652L177.937 63.302C178.143 62.742 178.488 62.3173 178.973 62.028C179.459 61.7293 180.061 61.58 180.779 61.58V62.546C180.742 62.546 180.705 62.546 180.667 62.546C180.63 62.5367 180.593 62.532 180.555 62.532C179.781 62.532 179.174 62.77 178.735 63.246C178.297 63.7127 178.077 64.38 178.077 65.248V69H177.083ZM185.521 69.07C184.811 69.07 184.172 68.9113 183.603 68.594C183.043 68.2673 182.599 67.824 182.273 67.264C181.946 66.6947 181.783 66.046 181.783 65.318C181.783 64.5807 181.946 63.932 182.273 63.372C182.599 62.812 183.043 62.3733 183.603 62.056C184.163 61.7387 184.802 61.58 185.521 61.58C186.249 61.58 186.893 61.7387 187.453 62.056C188.022 62.3733 188.465 62.812 188.783 63.372C189.109 63.932 189.273 64.5807 189.273 65.318C189.273 66.046 189.109 66.6947 188.783 67.264C188.465 67.824 188.022 68.2673 187.453 68.594C186.883 68.9113 186.239 69.07 185.521 69.07ZM185.521 68.188C186.053 68.188 186.524 68.0713 186.935 67.838C187.345 67.5953 187.667 67.2593 187.901 66.83C188.143 66.3913 188.265 65.8873 188.265 65.318C188.265 64.7393 188.143 64.2353 187.901 63.806C187.667 63.3767 187.345 63.0453 186.935 62.812C186.524 62.5693 186.057 62.448 185.535 62.448C185.012 62.448 184.545 62.5693 184.135 62.812C183.724 63.0453 183.397 63.3767 183.155 63.806C182.912 64.2353 182.791 64.7393 182.791 65.318C182.791 65.8873 182.912 66.3913 183.155 66.83C183.397 67.2593 183.724 67.5953 184.135 67.838C184.545 68.0713 185.007 68.188 185.521 68.188ZM200.486 61.58C201.083 61.58 201.601 61.6967 202.04 61.93C202.488 62.154 202.833 62.4993 203.076 62.966C203.328 63.4327 203.454 64.0207 203.454 64.73V69H202.46V64.828C202.46 64.0533 202.273 63.47 201.9 63.078C201.536 62.6767 201.018 62.476 200.346 62.476C199.842 62.476 199.403 62.5833 199.03 62.798C198.666 63.0033 198.381 63.3067 198.176 63.708C197.98 64.1 197.882 64.576 197.882 65.136V69H196.888V64.828C196.888 64.0533 196.701 63.47 196.328 63.078C195.955 62.6767 195.432 62.476 194.76 62.476C194.265 62.476 193.831 62.5833 193.458 62.798C193.085 63.0033 192.795 63.3067 192.59 63.708C192.394 64.1 192.296 64.576 192.296 65.136V69H191.302V61.65H192.254V63.638L192.1 63.288C192.324 62.756 192.683 62.3407 193.178 62.042C193.682 61.734 194.275 61.58 194.956 61.58C195.675 61.58 196.286 61.762 196.79 62.126C197.294 62.4807 197.621 63.0173 197.77 63.736L197.378 63.582C197.593 62.9847 197.971 62.504 198.512 62.14C199.063 61.7667 199.721 61.58 200.486 61.58ZM208.792 59.2V62.644H210.808V61.048H214.056L210.542 69H213.006L216.646 60.67V59.2H208.792ZM227.57 58.612V62.266C227.024 61.65 226.24 61.356 225.316 61.356C223.188 61.356 221.55 62.868 221.55 65.234C221.55 67.6 223.188 69.112 225.316 69.112C226.324 69.112 227.122 68.79 227.668 68.132V69H229.754V58.612H227.57ZM225.694 67.32C224.602 67.32 223.762 66.536 223.762 65.234C223.762 63.932 224.602 63.148 225.694 63.148C226.772 63.148 227.612 63.932 227.612 65.234C227.612 66.536 226.772 67.32 225.694 67.32ZM234.814 61.356C233.61 61.356 232.392 61.678 231.566 62.266L232.35 63.792C232.896 63.358 233.722 63.092 234.52 63.092C235.696 63.092 236.256 63.638 236.256 64.576H234.52C232.224 64.576 231.286 65.5 231.286 66.83C231.286 68.132 232.336 69.112 234.1 69.112C235.206 69.112 235.99 68.748 236.396 68.062V69H238.44V64.702C238.44 62.42 237.11 61.356 234.814 61.356ZM234.646 67.642C233.876 67.642 233.414 67.278 233.414 66.732C233.414 66.228 233.736 65.85 234.758 65.85H236.256V66.62C236.004 67.306 235.374 67.642 234.646 67.642ZM245.655 61.468L243.527 66.578L241.413 61.468H239.159L242.421 69.056L242.393 69.126C242.099 69.798 241.763 70.064 241.161 70.064C240.727 70.064 240.265 69.882 239.929 69.588L239.131 71.142C239.621 71.576 240.461 71.828 241.231 71.828C242.589 71.828 243.625 71.282 244.353 69.462L247.755 61.468H245.655ZM251.071 69.112C253.325 69.112 254.627 68.118 254.627 66.718C254.627 63.75 250.077 64.996 250.077 63.708C250.077 63.316 250.497 63.008 251.477 63.008C252.163 63.008 252.905 63.148 253.647 63.568L254.375 62.014C253.661 61.594 252.513 61.356 251.477 61.356C249.279 61.356 247.991 62.364 247.991 63.792C247.991 66.802 252.541 65.542 252.541 66.774C252.541 67.194 252.163 67.46 251.155 67.46C250.231 67.46 249.209 67.166 248.537 66.732L247.809 68.3C248.509 68.762 249.797 69.112 251.071 69.112ZM264.21 67.096C263.972 67.278 263.65 67.376 263.328 67.376C262.74 67.376 262.39 67.026 262.39 66.382V63.316H264.266V61.636H262.39V59.802H260.206V61.636H259.044V63.316H260.206V66.41C260.206 68.202 261.242 69.112 263.02 69.112C263.692 69.112 264.35 68.958 264.798 68.636L264.21 67.096ZM269.375 69.112C271.769 69.112 273.505 67.502 273.505 65.234C273.505 62.966 271.769 61.356 269.375 61.356C266.981 61.356 265.231 62.966 265.231 65.234C265.231 67.502 266.981 69.112 269.375 69.112ZM269.375 67.32C268.283 67.32 267.443 66.536 267.443 65.234C267.443 63.932 268.283 63.148 269.375 63.148C270.467 63.148 271.293 63.932 271.293 65.234C271.293 66.536 270.467 67.32 269.375 67.32ZM281.576 67.152L283.83 65.024C285.202 63.75 285.468 62.882 285.468 61.93C285.468 60.152 284.012 59.032 281.828 59.032C280.064 59.032 278.692 59.746 277.936 60.852L279.588 61.916C280.064 61.258 280.778 60.936 281.618 60.936C282.654 60.936 283.186 61.384 283.186 62.154C283.186 62.63 283.032 63.134 282.164 63.96L278.384 67.53V69H285.79V67.152H281.576ZM296.641 58.612V62.266C296.095 61.65 295.311 61.356 294.387 61.356C292.259 61.356 290.621 62.868 290.621 65.234C290.621 67.6 292.259 69.112 294.387 69.112C295.395 69.112 296.193 68.79 296.739 68.132V69H298.825V58.612H296.641ZM294.765 67.32C293.673 67.32 292.833 66.536 292.833 65.234C292.833 63.932 293.673 63.148 294.765 63.148C295.843 63.148 296.683 63.932 296.683 65.234C296.683 66.536 295.843 67.32 294.765 67.32ZM303.884 61.356C302.68 61.356 301.462 61.678 300.636 62.266L301.42 63.792C301.966 63.358 302.792 63.092 303.59 63.092C304.766 63.092 305.326 63.638 305.326 64.576H303.59C301.294 64.576 300.356 65.5 300.356 66.83C300.356 68.132 301.406 69.112 303.17 69.112C304.276 69.112 305.06 68.748 305.466 68.062V69H307.51V64.702C307.51 62.42 306.18 61.356 303.884 61.356ZM303.716 67.642C302.946 67.642 302.484 67.278 302.484 66.732C302.484 66.228 302.806 65.85 303.828 65.85H305.326V66.62C305.074 67.306 304.444 67.642 303.716 67.642ZM314.726 61.468L312.598 66.578L310.484 61.468H308.23L311.492 69.056L311.464 69.126C311.17 69.798 310.834 70.064 310.232 70.064C309.798 70.064 309.336 69.882 309 69.588L308.202 71.142C308.692 71.576 309.532 71.828 310.302 71.828C311.66 71.828 312.696 71.282 313.424 69.462L316.826 61.468H314.726ZM320.142 69.112C322.396 69.112 323.698 68.118 323.698 66.718C323.698 63.75 319.148 64.996 319.148 63.708C319.148 63.316 319.568 63.008 320.548 63.008C321.234 63.008 321.976 63.148 322.718 63.568L323.446 62.014C322.732 61.594 321.584 61.356 320.548 61.356C318.35 61.356 317.062 62.364 317.062 63.792C317.062 66.802 321.612 65.542 321.612 66.774C321.612 67.194 321.234 67.46 320.226 67.46C319.302 67.46 318.28 67.166 317.608 66.732L316.88 68.3C317.58 68.762 318.868 69.112 320.142 69.112Z" fill="#B4B4B4"/>
<path d="M1.596 184V174.2H5.264C6.09467 174.2 6.80867 174.335 7.406 174.606C8.00333 174.867 8.46067 175.25 8.778 175.754C9.10467 176.249 9.268 176.851 9.268 177.56C9.268 178.251 9.10467 178.848 8.778 179.352C8.46067 179.847 8.00333 180.229 7.406 180.5C6.80867 180.771 6.09467 180.906 5.264 180.906H2.17L2.632 180.416V184H1.596ZM2.632 180.5L2.17 179.996H5.236C6.216 179.996 6.958 179.786 7.462 179.366C7.97533 178.937 8.232 178.335 8.232 177.56C8.232 176.776 7.97533 176.169 7.462 175.74C6.958 175.311 6.216 175.096 5.236 175.096H2.17L2.632 174.606V180.5ZM15.8358 184V182.376L15.7938 182.11V179.394C15.7938 178.769 15.6164 178.288 15.2618 177.952C14.9164 177.616 14.3984 177.448 13.7078 177.448C13.2318 177.448 12.7791 177.527 12.3498 177.686C11.9204 177.845 11.5564 178.055 11.2578 178.316L10.8098 177.574C11.1831 177.257 11.6311 177.014 12.1538 176.846C12.6764 176.669 13.2271 176.58 13.8058 176.58C14.7578 176.58 15.4904 176.818 16.0038 177.294C16.5264 177.761 16.7878 178.475 16.7878 179.436V184H15.8358ZM13.3018 184.07C12.7511 184.07 12.2704 183.981 11.8598 183.804C11.4584 183.617 11.1504 183.365 10.9358 183.048C10.7211 182.721 10.6138 182.348 10.6138 181.928C10.6138 181.545 10.7024 181.2 10.8798 180.892C11.0664 180.575 11.3651 180.323 11.7758 180.136C12.1958 179.94 12.7558 179.842 13.4558 179.842H15.9898V180.584H13.4838C12.7744 180.584 12.2798 180.71 11.9998 180.962C11.7291 181.214 11.5938 181.527 11.5938 181.9C11.5938 182.32 11.7571 182.656 12.0838 182.908C12.4104 183.16 12.8678 183.286 13.4558 183.286C14.0158 183.286 14.4964 183.16 14.8978 182.908C15.3084 182.647 15.6071 182.273 15.7938 181.788L16.0178 182.474C15.8311 182.959 15.5044 183.347 15.0378 183.636C14.5804 183.925 14.0018 184.07 13.3018 184.07ZM22.6236 186.786C21.9516 186.786 21.3076 186.688 20.6916 186.492C20.0756 186.296 19.5762 186.016 19.1936 185.652L19.6976 184.896C20.0429 185.204 20.4676 185.447 20.9716 185.624C21.4849 185.811 22.0262 185.904 22.5956 185.904C23.5289 185.904 24.2149 185.685 24.6536 185.246C25.0922 184.817 25.3116 184.145 25.3116 183.23V181.396L25.4516 180.136L25.3536 178.876V176.65H26.3056V183.104C26.3056 184.373 25.9929 185.302 25.3676 185.89C24.7516 186.487 23.8369 186.786 22.6236 186.786ZM22.4416 183.72C21.7416 183.72 21.1116 183.571 20.5516 183.272C19.9916 182.964 19.5482 182.539 19.2216 181.998C18.9042 181.457 18.7456 180.836 18.7456 180.136C18.7456 179.436 18.9042 178.82 19.2216 178.288C19.5482 177.747 19.9916 177.327 20.5516 177.028C21.1116 176.729 21.7416 176.58 22.4416 176.58C23.0949 176.58 23.6829 176.715 24.2056 176.986C24.7282 177.257 25.1436 177.658 25.4516 178.19C25.7596 178.722 25.9136 179.371 25.9136 180.136C25.9136 180.901 25.7596 181.55 25.4516 182.082C25.1436 182.614 24.7282 183.02 24.2056 183.3C23.6829 183.58 23.0949 183.72 22.4416 183.72ZM22.5396 182.838C23.0809 182.838 23.5616 182.726 23.9816 182.502C24.4016 182.269 24.7329 181.951 24.9756 181.55C25.2182 181.139 25.3396 180.668 25.3396 180.136C25.3396 179.604 25.2182 179.137 24.9756 178.736C24.7329 178.335 24.4016 178.022 23.9816 177.798C23.5616 177.565 23.0809 177.448 22.5396 177.448C22.0076 177.448 21.5269 177.565 21.0976 177.798C20.6776 178.022 20.3462 178.335 20.1036 178.736C19.8702 179.137 19.7536 179.604 19.7536 180.136C19.7536 180.668 19.8702 181.139 20.1036 181.55C20.3462 181.951 20.6776 182.269 21.0976 182.502C21.5269 182.726 22.0076 182.838 22.5396 182.838ZM32.1935 184.07C31.4282 184.07 30.7562 183.911 30.1775 183.594C29.5989 183.267 29.1462 182.824 28.8195 182.264C28.4929 181.695 28.3295 181.046 28.3295 180.318C28.3295 179.59 28.4835 178.946 28.7915 178.386C29.1089 177.826 29.5382 177.387 30.0795 177.07C30.6302 176.743 31.2462 176.58 31.9275 176.58C32.6182 176.58 33.2295 176.739 33.7615 177.056C34.3029 177.364 34.7275 177.803 35.0355 178.372C35.3435 178.932 35.4975 179.581 35.4975 180.318C35.4975 180.365 35.4929 180.416 35.4835 180.472C35.4835 180.519 35.4835 180.57 35.4835 180.626H29.0855V179.884H34.9515L34.5595 180.178C34.5595 179.646 34.4429 179.175 34.2095 178.764C33.9855 178.344 33.6775 178.017 33.2855 177.784C32.8935 177.551 32.4409 177.434 31.9275 177.434C31.4235 177.434 30.9709 177.551 30.5695 177.784C30.1682 178.017 29.8555 178.344 29.6315 178.764C29.4075 179.184 29.2955 179.665 29.2955 180.206V180.36C29.2955 180.92 29.4169 181.415 29.6595 181.844C29.9115 182.264 30.2569 182.595 30.6955 182.838C31.1435 183.071 31.6522 183.188 32.2215 183.188C32.6695 183.188 33.0849 183.109 33.4675 182.95C33.8595 182.791 34.1955 182.549 34.4755 182.222L35.0355 182.866C34.7089 183.258 34.2982 183.557 33.8035 183.762C33.3182 183.967 32.7815 184.07 32.1935 184.07ZM41.1848 184V173.612H42.1788V184H41.1848ZM49.5506 184V182.376L49.5086 182.11V179.394C49.5086 178.769 49.3313 178.288 48.9766 177.952C48.6313 177.616 48.1133 177.448 47.4226 177.448C46.9466 177.448 46.4939 177.527 46.0646 177.686C45.6353 177.845 45.2713 178.055 44.9726 178.316L44.5246 177.574C44.8979 177.257 45.3459 177.014 45.8686 176.846C46.3913 176.669 46.9419 176.58 47.5206 176.58C48.4726 176.58 49.2053 176.818 49.7186 177.294C50.2413 177.761 50.5026 178.475 50.5026 179.436V184H49.5506ZM47.0166 184.07C46.4659 184.07 45.9853 183.981 45.5746 183.804C45.1733 183.617 44.8653 183.365 44.6506 183.048C44.4359 182.721 44.3286 182.348 44.3286 181.928C44.3286 181.545 44.4173 181.2 44.5946 180.892C44.7813 180.575 45.0799 180.323 45.4906 180.136C45.9106 179.94 46.4706 179.842 47.1706 179.842H49.7046V180.584H47.1986C46.4893 180.584 45.9946 180.71 45.7146 180.962C45.4439 181.214 45.3086 181.527 45.3086 181.9C45.3086 182.32 45.4719 182.656 45.7986 182.908C46.1253 183.16 46.5826 183.286 47.1706 183.286C47.7306 183.286 48.2113 183.16 48.6126 182.908C49.0233 182.647 49.3219 182.273 49.5086 181.788L49.7326 182.474C49.5459 182.959 49.2193 183.347 48.7526 183.636C48.2953 183.925 47.7166 184.07 47.0166 184.07ZM56.2404 184.07C55.6151 184.07 55.0691 183.953 54.6024 183.72C54.1357 183.487 53.7717 183.137 53.5104 182.67C53.2584 182.203 53.1324 181.62 53.1324 180.92V176.65H54.1264V180.808C54.1264 181.592 54.3177 182.185 54.7004 182.586C55.0924 182.978 55.6384 183.174 56.3384 183.174C56.8517 183.174 57.2951 183.071 57.6684 182.866C58.0511 182.651 58.3404 182.343 58.5364 181.942C58.7417 181.541 58.8444 181.06 58.8444 180.5V176.65H59.8384V184H58.8864V181.984L59.0404 182.348C58.8071 182.889 58.4431 183.314 57.9484 183.622C57.4631 183.921 56.8937 184.07 56.2404 184.07ZM66.3607 176.58C66.958 176.58 67.4807 176.697 67.9287 176.93C68.386 177.154 68.7407 177.499 68.9927 177.966C69.254 178.433 69.3847 179.021 69.3847 179.73V184H68.3907V179.828C68.3907 179.053 68.1947 178.47 67.8027 178.078C67.42 177.677 66.8787 177.476 66.1787 177.476C65.656 177.476 65.1987 177.583 64.8067 177.798C64.424 178.003 64.1253 178.307 63.9107 178.708C63.7053 179.1 63.6027 179.576 63.6027 180.136V184H62.6087V176.65H63.5607V178.666L63.4067 178.288C63.64 177.756 64.0133 177.341 64.5267 177.042C65.04 176.734 65.6513 176.58 66.3607 176.58ZM75.1216 184.07C74.3936 184.07 73.7403 183.911 73.1616 183.594C72.5923 183.267 72.1443 182.824 71.8176 182.264C71.4909 181.695 71.3276 181.046 71.3276 180.318C71.3276 179.581 71.4909 178.932 71.8176 178.372C72.1443 177.812 72.5923 177.373 73.1616 177.056C73.7403 176.739 74.3936 176.58 75.1216 176.58C75.7469 176.58 76.3116 176.701 76.8156 176.944C77.3196 177.187 77.7163 177.551 78.0056 178.036L77.2636 178.54C77.0116 178.167 76.6989 177.891 76.3256 177.714C75.9523 177.537 75.5463 177.448 75.1076 177.448C74.5849 177.448 74.1136 177.569 73.6936 177.812C73.2736 178.045 72.9423 178.377 72.6996 178.806C72.4569 179.235 72.3356 179.739 72.3356 180.318C72.3356 180.897 72.4569 181.401 72.6996 181.83C72.9423 182.259 73.2736 182.595 73.6936 182.838C74.1136 183.071 74.5849 183.188 75.1076 183.188C75.5463 183.188 75.9523 183.099 76.3256 182.922C76.6989 182.745 77.0116 182.474 77.2636 182.11L78.0056 182.614C77.7163 183.09 77.3196 183.454 76.8156 183.706C76.3116 183.949 75.7469 184.07 75.1216 184.07ZM83.6009 176.58C84.1982 176.58 84.7209 176.697 85.1689 176.93C85.6262 177.154 85.9809 177.499 86.2329 177.966C86.4942 178.433 86.6249 179.021 86.6249 179.73V184H85.6309V179.828C85.6309 179.053 85.4349 178.47 85.0429 178.078C84.6602 177.677 84.1189 177.476 83.4189 177.476C82.8962 177.476 82.4389 177.583 82.0469 177.798C81.6642 178.003 81.3656 178.307 81.1509 178.708C80.9456 179.1 80.8429 179.576 80.8429 180.136V184H79.8489V173.612H80.8429V178.666L80.6469 178.288C80.8802 177.756 81.2536 177.341 81.7669 177.042C82.2802 176.734 82.8916 176.58 83.6009 176.58ZM92.4318 184.07C91.6665 184.07 90.9945 183.911 90.4158 183.594C89.8372 183.267 89.3845 182.824 89.0578 182.264C88.7312 181.695 88.5678 181.046 88.5678 180.318C88.5678 179.59 88.7218 178.946 89.0298 178.386C89.3472 177.826 89.7765 177.387 90.3178 177.07C90.8685 176.743 91.4845 176.58 92.1658 176.58C92.8565 176.58 93.4678 176.739 93.9998 177.056C94.5412 177.364 94.9658 177.803 95.2738 178.372C95.5818 178.932 95.7358 179.581 95.7358 180.318C95.7358 180.365 95.7312 180.416 95.7218 180.472C95.7218 180.519 95.7218 180.57 95.7218 180.626H89.3238V179.884H95.1898L94.7978 180.178C94.7978 179.646 94.6812 179.175 94.4478 178.764C94.2238 178.344 93.9158 178.017 93.5238 177.784C93.1318 177.551 92.6792 177.434 92.1658 177.434C91.6618 177.434 91.2092 177.551 90.8078 177.784C90.4065 178.017 90.0938 178.344 89.8698 178.764C89.6458 179.184 89.5338 179.665 89.5338 180.206V180.36C89.5338 180.92 89.6552 181.415 89.8978 181.844C90.1498 182.264 90.4952 182.595 90.9338 182.838C91.3818 183.071 91.8905 183.188 92.4598 183.188C92.9078 183.188 93.3232 183.109 93.7058 182.95C94.0978 182.791 94.4338 182.549 94.7138 182.222L95.2738 182.866C94.9472 183.258 94.5365 183.557 94.0418 183.762C93.5565 183.967 93.0198 184.07 92.4318 184.07ZM99.733 184.07C99.1264 184.07 98.5524 183.986 98.011 183.818C97.4697 183.641 97.045 183.421 96.737 183.16L97.185 182.376C97.4837 182.6 97.8664 182.796 98.333 182.964C98.7997 183.123 99.2897 183.202 99.803 183.202C100.503 183.202 101.007 183.095 101.315 182.88C101.623 182.656 101.777 182.362 101.777 181.998C101.777 181.727 101.688 181.517 101.511 181.368C101.343 181.209 101.119 181.093 100.839 181.018C100.559 180.934 100.246 180.864 99.901 180.808C99.5557 180.752 99.2104 180.687 98.865 180.612C98.529 180.537 98.221 180.43 97.941 180.29C97.661 180.141 97.4324 179.94 97.255 179.688C97.087 179.436 97.003 179.1 97.003 178.68C97.003 178.279 97.115 177.919 97.339 177.602C97.563 177.285 97.8897 177.037 98.319 176.86C98.7577 176.673 99.2897 176.58 99.915 176.58C100.391 176.58 100.867 176.645 101.343 176.776C101.819 176.897 102.211 177.061 102.519 177.266L102.085 178.064C101.758 177.84 101.408 177.681 101.035 177.588C100.662 177.485 100.288 177.434 99.915 177.434C99.2524 177.434 98.7624 177.551 98.445 177.784C98.137 178.008 97.983 178.297 97.983 178.652C97.983 178.932 98.067 179.151 98.235 179.31C98.4124 179.469 98.641 179.595 98.921 179.688C99.2104 179.772 99.523 179.842 99.859 179.898C100.204 179.954 100.545 180.024 100.881 180.108C101.226 180.183 101.539 180.29 101.819 180.43C102.108 180.561 102.337 180.752 102.505 181.004C102.682 181.247 102.771 181.569 102.771 181.97C102.771 182.399 102.65 182.773 102.407 183.09C102.174 183.398 101.828 183.641 101.371 183.818C100.923 183.986 100.377 184.07 99.733 184.07ZM111.311 184.07C110.583 184.07 109.93 183.911 109.351 183.594C108.782 183.267 108.334 182.824 108.007 182.264C107.68 181.695 107.517 181.046 107.517 180.318C107.517 179.581 107.68 178.932 108.007 178.372C108.334 177.812 108.782 177.373 109.351 177.056C109.93 176.739 110.583 176.58 111.311 176.58C111.936 176.58 112.501 176.701 113.005 176.944C113.509 177.187 113.906 177.551 114.195 178.036L113.453 178.54C113.201 178.167 112.888 177.891 112.515 177.714C112.142 177.537 111.736 177.448 111.297 177.448C110.774 177.448 110.303 177.569 109.883 177.812C109.463 178.045 109.132 178.377 108.889 178.806C108.646 179.235 108.525 179.739 108.525 180.318C108.525 180.897 108.646 181.401 108.889 181.83C109.132 182.259 109.463 182.595 109.883 182.838C110.303 183.071 110.774 183.188 111.297 183.188C111.736 183.188 112.142 183.099 112.515 182.922C112.888 182.745 113.201 182.474 113.453 182.11L114.195 182.614C113.906 183.09 113.509 183.454 113.005 183.706C112.501 183.949 111.936 184.07 111.311 184.07ZM119.186 184.07C118.56 184.07 118.014 183.953 117.548 183.72C117.081 183.487 116.717 183.137 116.456 182.67C116.204 182.203 116.078 181.62 116.078 180.92V176.65H117.072V180.808C117.072 181.592 117.263 182.185 117.646 182.586C118.038 182.978 118.584 183.174 119.284 183.174C119.797 183.174 120.24 183.071 120.614 182.866C120.996 182.651 121.286 182.343 121.482 181.942C121.687 181.541 121.79 181.06 121.79 180.5V176.65H122.784V184H121.832V181.984L121.986 182.348C121.752 182.889 121.388 183.314 120.894 183.622C120.408 183.921 119.839 184.07 119.186 184.07ZM127.878 184.07C127.187 184.07 126.655 183.883 126.282 183.51C125.909 183.137 125.722 182.609 125.722 181.928V175.026H126.716V181.872C126.716 182.301 126.823 182.633 127.038 182.866C127.262 183.099 127.579 183.216 127.99 183.216C128.429 183.216 128.793 183.09 129.082 182.838L129.432 183.552C129.236 183.729 128.998 183.86 128.718 183.944C128.447 184.028 128.167 184.07 127.878 184.07ZM124.406 177.476V176.65H128.956V177.476H124.406ZM135.074 184V175.726C135.074 175.073 135.265 174.545 135.648 174.144C136.03 173.743 136.581 173.542 137.3 173.542C137.58 173.542 137.85 173.579 138.112 173.654C138.373 173.729 138.592 173.845 138.77 174.004L138.434 174.746C138.294 174.625 138.13 174.536 137.944 174.48C137.757 174.415 137.556 174.382 137.342 174.382C136.922 174.382 136.6 174.499 136.376 174.732C136.152 174.965 136.04 175.311 136.04 175.768V176.888L136.068 177.35V184H135.074ZM133.758 177.476V176.65H138.308V177.476H133.758ZM139.65 184V176.65H140.602V178.652L140.504 178.302C140.709 177.742 141.054 177.317 141.54 177.028C142.025 176.729 142.627 176.58 143.346 176.58V177.546C143.308 177.546 143.271 177.546 143.234 177.546C143.196 177.537 143.159 177.532 143.122 177.532C142.347 177.532 141.74 177.77 141.302 178.246C140.863 178.713 140.644 179.38 140.644 180.248V184H139.65ZM148.087 184.07C147.378 184.07 146.738 183.911 146.169 183.594C145.609 183.267 145.166 182.824 144.839 182.264C144.512 181.695 144.349 181.046 144.349 180.318C144.349 179.581 144.512 178.932 144.839 178.372C145.166 177.812 145.609 177.373 146.169 177.056C146.729 176.739 147.368 176.58 148.087 176.58C148.815 176.58 149.459 176.739 150.019 177.056C150.588 177.373 151.032 177.812 151.349 178.372C151.676 178.932 151.839 179.581 151.839 180.318C151.839 181.046 151.676 181.695 151.349 182.264C151.032 182.824 150.588 183.267 150.019 183.594C149.45 183.911 148.806 184.07 148.087 184.07ZM148.087 183.188C148.619 183.188 149.09 183.071 149.501 182.838C149.912 182.595 150.234 182.259 150.467 181.83C150.71 181.391 150.831 180.887 150.831 180.318C150.831 179.739 150.71 179.235 150.467 178.806C150.234 178.377 149.912 178.045 149.501 177.812C149.09 177.569 148.624 177.448 148.101 177.448C147.578 177.448 147.112 177.569 146.701 177.812C146.29 178.045 145.964 178.377 145.721 178.806C145.478 179.235 145.357 179.739 145.357 180.318C145.357 180.887 145.478 181.391 145.721 181.83C145.964 182.259 146.29 182.595 146.701 182.838C147.112 183.071 147.574 183.188 148.087 183.188ZM163.052 176.58C163.65 176.58 164.168 176.697 164.606 176.93C165.054 177.154 165.4 177.499 165.642 177.966C165.894 178.433 166.02 179.021 166.02 179.73V184H165.026V179.828C165.026 179.053 164.84 178.47 164.466 178.078C164.102 177.677 163.584 177.476 162.912 177.476C162.408 177.476 161.97 177.583 161.596 177.798C161.232 178.003 160.948 178.307 160.742 178.708C160.546 179.1 160.448 179.576 160.448 180.136V184H159.454V179.828C159.454 179.053 159.268 178.47 158.894 178.078C158.521 177.677 157.998 177.476 157.326 177.476C156.832 177.476 156.398 177.583 156.024 177.798C155.651 178.003 155.362 178.307 155.156 178.708C154.96 179.1 154.862 179.576 154.862 180.136V184H153.868V176.65H154.82V178.638L154.666 178.288C154.89 177.756 155.25 177.341 155.744 177.042C156.248 176.734 156.841 176.58 157.522 176.58C158.241 176.58 158.852 176.762 159.356 177.126C159.86 177.481 160.187 178.017 160.336 178.736L159.944 178.582C160.159 177.985 160.537 177.504 161.078 177.14C161.629 176.767 162.287 176.58 163.052 176.58ZM174.648 182.152L176.902 180.024C178.274 178.75 178.54 177.882 178.54 176.93C178.54 175.152 177.084 174.032 174.9 174.032C173.136 174.032 171.764 174.746 171.008 175.852L172.66 176.916C173.136 176.258 173.85 175.936 174.69 175.936C175.726 175.936 176.258 176.384 176.258 177.154C176.258 177.63 176.104 178.134 175.236 178.96L171.456 182.53V184H178.862V182.152H174.648ZM189.713 173.612V177.266C189.167 176.65 188.383 176.356 187.459 176.356C185.331 176.356 183.693 177.868 183.693 180.234C183.693 182.6 185.331 184.112 187.459 184.112C188.467 184.112 189.265 183.79 189.811 183.132V184H191.897V173.612H189.713ZM187.837 182.32C186.745 182.32 185.905 181.536 185.905 180.234C185.905 178.932 186.745 178.148 187.837 178.148C188.915 178.148 189.755 178.932 189.755 180.234C189.755 181.536 188.915 182.32 187.837 182.32ZM196.956 176.356C195.752 176.356 194.534 176.678 193.708 177.266L194.492 178.792C195.038 178.358 195.864 178.092 196.662 178.092C197.838 178.092 198.398 178.638 198.398 179.576H196.662C194.366 179.576 193.428 180.5 193.428 181.83C193.428 183.132 194.478 184.112 196.242 184.112C197.348 184.112 198.132 183.748 198.538 183.062V184H200.582V179.702C200.582 177.42 199.252 176.356 196.956 176.356ZM196.788 182.642C196.018 182.642 195.556 182.278 195.556 181.732C195.556 181.228 195.878 180.85 196.9 180.85H198.398V181.62C198.146 182.306 197.516 182.642 196.788 182.642ZM207.798 176.468L205.67 181.578L203.556 176.468H201.302L204.564 184.056L204.536 184.126C204.242 184.798 203.906 185.064 203.304 185.064C202.87 185.064 202.408 184.882 202.072 184.588L201.274 186.142C201.764 186.576 202.604 186.828 203.374 186.828C204.732 186.828 205.768 186.282 206.496 184.462L209.898 176.468H207.798ZM213.214 184.112C215.468 184.112 216.77 183.118 216.77 181.718C216.77 178.75 212.22 179.996 212.22 178.708C212.22 178.316 212.64 178.008 213.62 178.008C214.306 178.008 215.048 178.148 215.79 178.568L216.518 177.014C215.804 176.594 214.656 176.356 213.62 176.356C211.422 176.356 210.134 177.364 210.134 178.792C210.134 181.802 214.684 180.542 214.684 181.774C214.684 182.194 214.306 182.46 213.298 182.46C212.374 182.46 211.352 182.166 210.68 181.732L209.952 183.3C210.652 183.762 211.94 184.112 213.214 184.112ZM226.352 182.096C226.114 182.278 225.792 182.376 225.47 182.376C224.882 182.376 224.532 182.026 224.532 181.382V178.316H226.408V176.636H224.532V174.802H222.348V176.636H221.186V178.316H222.348V181.41C222.348 183.202 223.384 184.112 225.162 184.112C225.834 184.112 226.492 183.958 226.94 183.636L226.352 182.096ZM231.518 184.112C233.912 184.112 235.648 182.502 235.648 180.234C235.648 177.966 233.912 176.356 231.518 176.356C229.124 176.356 227.374 177.966 227.374 180.234C227.374 182.502 229.124 184.112 231.518 184.112ZM231.518 182.32C230.426 182.32 229.586 181.536 229.586 180.234C229.586 178.932 230.426 178.148 231.518 178.148C232.61 178.148 233.436 178.932 233.436 180.234C233.436 181.536 232.61 182.32 231.518 182.32ZM243.718 182.152L245.972 180.024C247.344 178.75 247.61 177.882 247.61 176.93C247.61 175.152 246.154 174.032 243.97 174.032C242.206 174.032 240.834 174.746 240.078 175.852L241.73 176.916C242.206 176.258 242.92 175.936 243.76 175.936C244.796 175.936 245.328 176.384 245.328 177.154C245.328 177.63 245.174 178.134 244.306 178.96L240.526 182.53V184H247.932V182.152H243.718ZM257.873 176.356C256.907 176.356 256.067 176.664 255.479 177.252V173.612H253.295V184H255.479V180.276C255.479 178.89 256.235 178.246 257.285 178.246C258.251 178.246 258.811 178.806 258.811 180.024V184H260.995V179.688C260.995 177.392 259.651 176.356 257.873 176.356ZM266.641 184.112C269.035 184.112 270.771 182.502 270.771 180.234C270.771 177.966 269.035 176.356 266.641 176.356C264.247 176.356 262.497 177.966 262.497 180.234C262.497 182.502 264.247 184.112 266.641 184.112ZM266.641 182.32C265.549 182.32 264.709 181.536 264.709 180.234C264.709 178.932 265.549 178.148 266.641 178.148C267.733 178.148 268.559 178.932 268.559 180.234C268.559 181.536 267.733 182.32 266.641 182.32ZM277.635 176.468V180.192C277.635 181.578 276.907 182.222 275.899 182.222C274.933 182.222 274.373 181.662 274.373 180.402V176.468H272.189V180.724C272.189 183.048 273.519 184.112 275.409 184.112C276.333 184.112 277.173 183.762 277.747 183.104V184H279.819V176.468H277.635ZM283.928 177.462V176.468H281.842V184H284.026V180.444C284.026 179.002 284.824 178.344 286.028 178.344C286.196 178.344 286.336 178.358 286.518 178.372V176.356C285.356 176.356 284.46 176.734 283.928 177.462ZM290.378 184.112C292.632 184.112 293.934 183.118 293.934 181.718C293.934 178.75 289.384 179.996 289.384 178.708C289.384 178.316 289.804 178.008 290.784 178.008C291.47 178.008 292.212 178.148 292.954 178.568L293.682 177.014C292.968 176.594 291.82 176.356 290.784 176.356C288.586 176.356 287.298 177.364 287.298 178.792C287.298 181.802 291.848 180.542 291.848 181.774C291.848 182.194 291.47 182.46 290.462 182.46C289.538 182.46 288.516 182.166 287.844 181.732L287.116 183.3C287.816 183.762 289.104 184.112 290.378 184.112Z" fill="#B4B4B4"/>
<rect opacity="0.2" x="1" y="120" width="277" height="40" rx="4" fill="#07DDDA"/>
<rect x="1" y="120" width="15" height="40" rx="4" fill="#07DDDA"/>
</svg>
