<svg width="217" height="13" viewBox="0 0 217 13" fill="none" xmlns="http://www.w3.org/2000/svg">
<path d="M6.86422 1.375C6.53609 1.375 6.30172 1.14062 6.30172 0.8125C6.30172 0.507812 6.53609 0.25 6.86422 0.25H10.2392C10.5439 0.25 10.8017 0.507812 10.8017 0.8125V4.1875C10.8017 4.51562 10.5439 4.75 10.2392 4.75C9.91109 4.75 9.67672 4.51562 9.67672 4.1875V2.17188L4.98922 6.83594C4.77828 7.07031 4.42672 7.07031 4.21578 6.83594C3.98141 6.625 3.98141 6.27344 4.21578 6.03906L8.87984 1.375H6.86422ZM0.30172 2.3125C0.30172 1.60938 0.887657 1 1.61422 1H4.23922C4.54391 1 4.80172 1.25781 4.80172 1.5625C4.80172 1.89062 4.54391 2.125 4.23922 2.125H1.61422C1.49703 2.125 1.42672 2.21875 1.42672 2.3125V9.4375C1.42672 9.55469 1.49703 9.625 1.61422 9.625H8.73922C8.83297 9.625 8.92672 9.55469 8.92672 9.4375V6.8125C8.92672 6.50781 9.16109 6.25 9.48922 6.25C9.79391 6.25 10.0517 6.50781 10.0517 6.8125V9.4375C10.0517 10.1641 9.44234 10.75 8.73922 10.75H1.61422C0.887657 10.75 0.30172 10.1641 0.30172 9.4375V2.3125ZM24.219 10.096C23.571 10.096 22.975 9.992 22.431 9.784C21.887 9.568 21.415 9.268 21.015 8.884C20.615 8.492 20.303 8.036 20.079 7.516C19.855 6.996 19.743 6.424 19.743 5.8C19.743 5.176 19.855 4.604 20.079 4.084C20.303 3.564 20.615 3.112 21.015 2.728C21.423 2.336 21.899 2.036 22.443 1.828C22.987 1.612 23.587 1.504 24.243 1.504C24.907 1.504 25.515 1.612 26.067 1.828C26.619 2.044 27.087 2.368 27.471 2.8L26.727 3.544C26.383 3.208 26.007 2.964 25.599 2.812C25.199 2.652 24.763 2.572 24.291 2.572C23.811 2.572 23.363 2.652 22.947 2.812C22.539 2.972 22.183 3.196 21.879 3.484C21.583 3.772 21.351 4.116 21.183 4.516C21.023 4.908 20.943 5.336 20.943 5.8C20.943 6.256 21.023 6.684 21.183 7.084C21.351 7.476 21.583 7.82 21.879 8.116C22.183 8.404 22.539 8.628 22.947 8.788C23.355 8.948 23.799 9.028 24.279 9.028C24.727 9.028 25.155 8.96 25.563 8.824C25.979 8.68 26.363 8.444 26.715 8.116L27.399 9.028C26.983 9.38 26.495 9.648 25.935 9.832C25.383 10.008 24.811 10.096 24.219 10.096ZM26.247 8.872V5.752H27.399V9.028L26.247 8.872ZM32.2526 10.072C31.6126 10.072 31.0446 9.932 30.5486 9.652C30.0526 9.372 29.6606 8.988 29.3726 8.5C29.0846 8.004 28.9406 7.444 28.9406 6.82C28.9406 6.188 29.0846 5.628 29.3726 5.14C29.6606 4.652 30.0526 4.272 30.5486 4C31.0446 3.72 31.6126 3.58 32.2526 3.58C32.8846 3.58 33.4486 3.72 33.9446 4C34.4486 4.272 34.8406 4.652 35.1206 5.14C35.4086 5.62 35.5526 6.18 35.5526 6.82C35.5526 7.452 35.4086 8.012 35.1206 8.5C34.8406 8.988 34.4486 9.372 33.9446 9.652C33.4486 9.932 32.8846 10.072 32.2526 10.072ZM32.2526 9.064C32.6606 9.064 33.0246 8.972 33.3446 8.788C33.6726 8.604 33.9286 8.344 34.1126 8.008C34.2966 7.664 34.3886 7.268 34.3886 6.82C34.3886 6.364 34.2966 5.972 34.1126 5.644C33.9286 5.308 33.6726 5.048 33.3446 4.864C33.0246 4.68 32.6606 4.588 32.2526 4.588C31.8446 4.588 31.4806 4.68 31.1606 4.864C30.8406 5.048 30.5846 5.308 30.3926 5.644C30.2006 5.972 30.1046 6.364 30.1046 6.82C30.1046 7.268 30.2006 7.664 30.3926 8.008C30.5846 8.344 30.8406 8.604 31.1606 8.788C31.4806 8.972 31.8446 9.064 32.2526 9.064ZM42.5524 10.072C41.9124 10.072 41.4164 9.9 41.0644 9.556C40.7124 9.212 40.5364 8.72 40.5364 8.08V2.248H41.6884V8.032C41.6884 8.376 41.7724 8.64 41.9404 8.824C42.1164 9.008 42.3644 9.1 42.6844 9.1C43.0444 9.1 43.3444 9 43.5844 8.8L43.9444 9.628C43.7684 9.78 43.5564 9.892 43.3084 9.964C43.0684 10.036 42.8164 10.072 42.5524 10.072ZM39.4564 4.588V3.64H43.5124V4.588H39.4564ZM47.8502 10.072C47.2102 10.072 46.6422 9.932 46.1462 9.652C45.6502 9.372 45.2582 8.988 44.9702 8.5C44.6822 8.004 44.5382 7.444 44.5382 6.82C44.5382 6.188 44.6822 5.628 44.9702 5.14C45.2582 4.652 45.6502 4.272 46.1462 4C46.6422 3.72 47.2102 3.58 47.8502 3.58C48.4822 3.58 49.0462 3.72 49.5422 4C50.0462 4.272 50.4382 4.652 50.7182 5.14C51.0062 5.62 51.1502 6.18 51.1502 6.82C51.1502 7.452 51.0062 8.012 50.7182 8.5C50.4382 8.988 50.0462 9.372 49.5422 9.652C49.0462 9.932 48.4822 10.072 47.8502 10.072ZM47.8502 9.064C48.2582 9.064 48.6222 8.972 48.9422 8.788C49.2702 8.604 49.5262 8.344 49.7102 8.008C49.8942 7.664 49.9862 7.268 49.9862 6.82C49.9862 6.364 49.8942 5.972 49.7102 5.644C49.5262 5.308 49.2702 5.048 48.9422 4.864C48.6222 4.68 48.2582 4.588 47.8502 4.588C47.4422 4.588 47.0782 4.68 46.7582 4.864C46.4382 5.048 46.1822 5.308 45.9902 5.644C45.7982 5.972 45.7022 6.364 45.7022 6.82C45.7022 7.268 45.7982 7.664 45.9902 8.008C46.1822 8.344 46.4382 8.604 46.7582 8.788C47.0782 8.972 47.4422 9.064 47.8502 9.064ZM58.7501 12.4C58.1661 12.4 57.5981 12.316 57.0461 12.148C56.5021 11.988 56.0581 11.756 55.7141 11.452L56.2661 10.564C56.5621 10.82 56.9261 11.02 57.3581 11.164C57.7901 11.316 58.2421 11.392 58.7141 11.392C59.4661 11.392 60.0181 11.216 60.3701 10.864C60.7221 10.512 60.8981 9.976 60.8981 9.256V7.912L61.0181 6.652L60.9581 5.38V3.64H62.0501V9.136C62.0501 10.256 61.7701 11.08 61.2101 11.608C60.6501 12.136 59.8301 12.4 58.7501 12.4ZM58.6061 9.736C57.9901 9.736 57.4381 9.608 56.9501 9.352C56.4701 9.088 56.0861 8.724 55.7981 8.26C55.5181 7.796 55.3781 7.26 55.3781 6.652C55.3781 6.036 55.5181 5.5 55.7981 5.044C56.0861 4.58 56.4701 4.22 56.9501 3.964C57.4381 3.708 57.9901 3.58 58.6061 3.58C59.1501 3.58 59.6461 3.692 60.0941 3.916C60.5421 4.132 60.8981 4.468 61.1621 4.924C61.4341 5.38 61.5701 5.956 61.5701 6.652C61.5701 7.34 61.4341 7.912 61.1621 8.368C60.8981 8.824 60.5421 9.168 60.0941 9.4C59.6461 9.624 59.1501 9.736 58.6061 9.736ZM58.7381 8.728C59.1621 8.728 59.5381 8.64 59.8661 8.464C60.1941 8.288 60.4501 8.044 60.6341 7.732C60.8261 7.42 60.9221 7.06 60.9221 6.652C60.9221 6.244 60.8261 5.884 60.6341 5.572C60.4501 5.26 60.1941 5.02 59.8661 4.852C59.5381 4.676 59.1621 4.588 58.7381 4.588C58.3141 4.588 57.9341 4.676 57.5981 4.852C57.2701 5.02 57.0101 5.26 56.8181 5.572C56.6341 5.884 56.5421 6.244 56.5421 6.652C56.5421 7.06 56.6341 7.42 56.8181 7.732C57.0101 8.044 57.2701 8.288 57.5981 8.464C57.9341 8.64 58.3141 8.728 58.7381 8.728ZM64.2512 10V1.096H65.4032V10H64.2512ZM70.3268 10.072C69.6868 10.072 69.1188 9.932 68.6228 9.652C68.1268 9.372 67.7348 8.988 67.4468 8.5C67.1588 8.004 67.0148 7.444 67.0148 6.82C67.0148 6.188 67.1588 5.628 67.4468 5.14C67.7348 4.652 68.1268 4.272 68.6228 4C69.1188 3.72 69.6868 3.58 70.3268 3.58C70.9588 3.58 71.5228 3.72 72.0188 4C72.5228 4.272 72.9148 4.652 73.1948 5.14C73.4828 5.62 73.6268 6.18 73.6268 6.82C73.6268 7.452 73.4828 8.012 73.1948 8.5C72.9148 8.988 72.5228 9.372 72.0188 9.652C71.5228 9.932 70.9588 10.072 70.3268 10.072ZM70.3268 9.064C70.7348 9.064 71.0988 8.972 71.4188 8.788C71.7468 8.604 72.0028 8.344 72.1868 8.008C72.3708 7.664 72.4628 7.268 72.4628 6.82C72.4628 6.364 72.3708 5.972 72.1868 5.644C72.0028 5.308 71.7468 5.048 71.4188 4.864C71.0988 4.68 70.7348 4.588 70.3268 4.588C69.9188 4.588 69.5548 4.68 69.2348 4.864C68.9148 5.048 68.6588 5.308 68.4668 5.644C68.2748 5.972 68.1788 6.364 68.1788 6.82C68.1788 7.268 68.2748 7.664 68.4668 8.008C68.6588 8.344 68.9148 8.604 69.2348 8.788C69.5548 8.972 69.9188 9.064 70.3268 9.064ZM78.592 10.072C78.048 10.072 77.556 9.952 77.116 9.712C76.684 9.464 76.34 9.1 76.084 8.62C75.836 8.14 75.712 7.54 75.712 6.82C75.712 6.1 75.84 5.5 76.096 5.02C76.36 4.54 76.708 4.18 77.14 3.94C77.58 3.7 78.064 3.58 78.592 3.58C79.216 3.58 79.768 3.716 80.248 3.988C80.728 4.26 81.108 4.64 81.388 5.128C81.668 5.608 81.808 6.172 81.808 6.82C81.808 7.468 81.668 8.036 81.388 8.524C81.108 9.012 80.728 9.392 80.248 9.664C79.768 9.936 79.216 10.072 78.592 10.072ZM75.22 10V1.096H76.372V5.332L76.252 6.808L76.324 8.284V10H75.22ZM78.496 9.064C78.904 9.064 79.268 8.972 79.588 8.788C79.916 8.604 80.172 8.344 80.356 8.008C80.548 7.664 80.644 7.268 80.644 6.82C80.644 6.364 80.548 5.972 80.356 5.644C80.172 5.308 79.916 5.048 79.588 4.864C79.268 4.68 78.904 4.588 78.496 4.588C78.096 4.588 77.732 4.68 77.404 4.864C77.084 5.048 76.828 5.308 76.636 5.644C76.452 5.972 76.36 6.364 76.36 6.82C76.36 7.268 76.452 7.664 76.636 8.008C76.828 8.344 77.084 8.604 77.404 8.788C77.732 8.972 78.096 9.064 78.496 9.064ZM87.2891 10V8.656L87.2291 8.404V6.112C87.2291 5.624 87.0851 5.248 86.7971 4.984C86.5171 4.712 86.0931 4.576 85.5251 4.576C85.1491 4.576 84.7811 4.64 84.4211 4.768C84.0611 4.888 83.7571 5.052 83.5091 5.26L83.0291 4.396C83.3571 4.132 83.7491 3.932 84.2051 3.796C84.6691 3.652 85.1531 3.58 85.6571 3.58C86.5291 3.58 87.2011 3.792 87.6731 4.216C88.1451 4.64 88.3811 5.288 88.3811 6.16V10H87.2891ZM85.2011 10.072C84.7291 10.072 84.3131 9.992 83.9531 9.832C83.6011 9.672 83.3291 9.452 83.1371 9.172C82.9451 8.884 82.8491 8.56 82.8491 8.2C82.8491 7.856 82.9291 7.544 83.0891 7.264C83.2571 6.984 83.5251 6.76 83.8931 6.592C84.2691 6.424 84.7731 6.34 85.4051 6.34H87.4211V7.168H85.4531C84.8771 7.168 84.4891 7.264 84.2891 7.456C84.0891 7.648 83.9891 7.88 83.9891 8.152C83.9891 8.464 84.1131 8.716 84.3611 8.908C84.6091 9.092 84.9531 9.184 85.3931 9.184C85.8251 9.184 86.2011 9.088 86.5211 8.896C86.8491 8.704 87.0851 8.424 87.2291 8.056L87.4571 8.848C87.3051 9.224 87.0371 9.524 86.6531 9.748C86.2691 9.964 85.7851 10.072 85.2011 10.072ZM90.5129 10V1.096H91.6649V10H90.5129ZM101.047 10.096C100.399 10.096 99.8032 9.992 99.2592 9.784C98.7152 9.568 98.2432 9.268 97.8432 8.884C97.4432 8.492 97.1312 8.036 96.9072 7.516C96.6832 6.996 96.5712 6.424 96.5712 5.8C96.5712 5.176 96.6832 4.604 96.9072 4.084C97.1312 3.564 97.4432 3.112 97.8432 2.728C98.2512 2.336 98.7272 2.036 99.2712 1.828C99.8152 1.612 100.415 1.504 101.071 1.504C101.735 1.504 102.343 1.612 102.895 1.828C103.447 2.044 103.915 2.368 104.299 2.8L103.555 3.544C103.211 3.208 102.835 2.964 102.427 2.812C102.027 2.652 101.591 2.572 101.119 2.572C100.639 2.572 100.191 2.652 99.7752 2.812C99.3672 2.972 99.0112 3.196 98.7072 3.484C98.4112 3.772 98.1792 4.116 98.0112 4.516C97.8512 4.908 97.7712 5.336 97.7712 5.8C97.7712 6.256 97.8512 6.684 98.0112 7.084C98.1792 7.476 98.4112 7.82 98.7072 8.116C99.0112 8.404 99.3672 8.628 99.7752 8.788C100.183 8.948 100.627 9.028 101.107 9.028C101.555 9.028 101.983 8.96 102.391 8.824C102.807 8.68 103.191 8.444 103.543 8.116L104.227 9.028C103.811 9.38 103.323 9.648 102.763 9.832C102.211 10.008 101.639 10.096 101.047 10.096ZM103.075 8.872V5.752H104.227V9.028L103.075 8.872ZM106.357 10V3.64H107.461V5.368L107.353 4.936C107.529 4.496 107.825 4.16 108.241 3.928C108.657 3.696 109.169 3.58 109.777 3.58V4.696C109.729 4.688 109.681 4.684 109.633 4.684C109.593 4.684 109.553 4.684 109.513 4.684C108.897 4.684 108.409 4.868 108.049 5.236C107.689 5.604 107.509 6.136 107.509 6.832V10H106.357ZM113.862 10.072C113.222 10.072 112.654 9.932 112.158 9.652C111.662 9.372 111.27 8.988 110.982 8.5C110.694 8.004 110.55 7.444 110.55 6.82C110.55 6.188 110.694 5.628 110.982 5.14C111.27 4.652 111.662 4.272 112.158 4C112.654 3.72 113.222 3.58 113.862 3.58C114.494 3.58 115.058 3.72 115.554 4C116.058 4.272 116.45 4.652 116.73 5.14C117.018 5.62 117.162 6.18 117.162 6.82C117.162 7.452 117.018 8.012 116.73 8.5C116.45 8.988 116.058 9.372 115.554 9.652C115.058 9.932 114.494 10.072 113.862 10.072ZM113.862 9.064C114.27 9.064 114.634 8.972 114.954 8.788C115.282 8.604 115.538 8.344 115.722 8.008C115.906 7.664 115.998 7.268 115.998 6.82C115.998 6.364 115.906 5.972 115.722 5.644C115.538 5.308 115.282 5.048 114.954 4.864C114.634 4.68 114.27 4.588 113.862 4.588C113.454 4.588 113.09 4.68 112.77 4.864C112.45 5.048 112.194 5.308 112.002 5.644C111.81 5.972 111.714 6.364 111.714 6.82C111.714 7.268 111.81 7.664 112.002 8.008C112.194 8.344 112.45 8.604 112.77 8.788C113.09 8.972 113.454 9.064 113.862 9.064ZM119.923 10L117.559 3.64H118.651L120.751 9.4H120.235L122.419 3.64H123.391L125.527 9.4H125.023L127.171 3.64H128.203L125.827 10H124.723L122.719 4.744H123.055L121.027 10H119.923ZM131.732 10.072C131.092 10.072 130.596 9.9 130.244 9.556C129.892 9.212 129.716 8.72 129.716 8.08V2.248H130.868V8.032C130.868 8.376 130.952 8.64 131.12 8.824C131.296 9.008 131.544 9.1 131.864 9.1C132.224 9.1 132.524 9 132.764 8.8L133.124 9.628C132.948 9.78 132.736 9.892 132.488 9.964C132.248 10.036 131.996 10.072 131.732 10.072ZM128.636 4.588V3.64H132.692V4.588H128.636ZM137.913 3.58C138.433 3.58 138.889 3.68 139.281 3.88C139.681 4.08 139.993 4.384 140.217 4.792C140.441 5.2 140.553 5.716 140.553 6.34V10H139.401V6.472C139.401 5.856 139.249 5.392 138.945 5.08C138.649 4.768 138.229 4.612 137.685 4.612C137.277 4.612 136.921 4.692 136.617 4.852C136.313 5.012 136.077 5.248 135.909 5.56C135.749 5.872 135.669 6.26 135.669 6.724V10H134.517V1.096H135.669V5.356L135.441 4.9C135.649 4.484 135.969 4.16 136.401 3.928C136.833 3.696 137.337 3.58 137.913 3.58ZM146.645 10.096C146.005 10.096 145.409 9.988 144.857 9.772C144.313 9.556 143.841 9.256 143.441 8.872C143.041 8.48 142.729 8.024 142.505 7.504C142.281 6.984 142.169 6.416 142.169 5.8C142.169 5.184 142.281 4.616 142.505 4.096C142.729 3.576 143.041 3.124 143.441 2.74C143.841 2.348 144.313 2.044 144.857 1.828C145.401 1.612 145.997 1.504 146.645 1.504C147.285 1.504 147.873 1.612 148.409 1.828C148.953 2.036 149.425 2.336 149.825 2.728C150.233 3.112 150.545 3.564 150.761 4.084C150.985 4.604 151.097 5.176 151.097 5.8C151.097 6.424 150.985 6.996 150.761 7.516C150.545 8.036 150.233 8.492 149.825 8.884C149.425 9.268 148.953 9.568 148.409 9.784C147.873 9.992 147.285 10.096 146.645 10.096ZM146.645 9.028C147.109 9.028 147.537 8.948 147.929 8.788C148.329 8.628 148.673 8.404 148.961 8.116C149.257 7.82 149.485 7.476 149.645 7.084C149.813 6.692 149.897 6.264 149.897 5.8C149.897 5.336 149.813 4.908 149.645 4.516C149.485 4.124 149.257 3.784 148.961 3.496C148.673 3.2 148.329 2.972 147.929 2.812C147.537 2.652 147.109 2.572 146.645 2.572C146.173 2.572 145.737 2.652 145.337 2.812C144.945 2.972 144.601 3.2 144.305 3.496C144.009 3.784 143.777 4.124 143.609 4.516C143.449 4.908 143.369 5.336 143.369 5.8C143.369 6.264 143.449 6.692 143.609 7.084C143.777 7.476 144.009 7.82 144.305 8.116C144.601 8.404 144.945 8.628 145.337 8.788C145.737 8.948 146.173 9.028 146.645 9.028ZM156.135 10.072C155.607 10.072 155.123 9.952 154.683 9.712C154.251 9.464 153.903 9.1 153.639 8.62C153.383 8.14 153.255 7.54 153.255 6.82C153.255 6.1 153.379 5.5 153.627 5.02C153.883 4.54 154.227 4.18 154.659 3.94C155.099 3.7 155.591 3.58 156.135 3.58C156.759 3.58 157.311 3.716 157.791 3.988C158.271 4.26 158.651 4.64 158.931 5.128C159.211 5.608 159.351 6.172 159.351 6.82C159.351 7.468 159.211 8.036 158.931 8.524C158.651 9.012 158.271 9.392 157.791 9.664C157.311 9.936 156.759 10.072 156.135 10.072ZM152.763 12.328V3.64H153.867V5.356L153.795 6.832L153.915 8.308V12.328H152.763ZM156.039 9.064C156.447 9.064 156.811 8.972 157.131 8.788C157.459 8.604 157.715 8.344 157.899 8.008C158.091 7.664 158.187 7.268 158.187 6.82C158.187 6.364 158.091 5.972 157.899 5.644C157.715 5.308 157.459 5.048 157.131 4.864C156.811 4.68 156.447 4.588 156.039 4.588C155.639 4.588 155.275 4.68 154.947 4.864C154.627 5.048 154.371 5.308 154.179 5.644C153.995 5.972 153.903 6.364 153.903 6.82C153.903 7.268 153.995 7.664 154.179 8.008C154.371 8.344 154.627 8.604 154.947 8.788C155.275 8.972 155.639 9.064 156.039 9.064ZM162.767 10.072C162.239 10.072 161.735 10 161.255 9.856C160.783 9.712 160.411 9.536 160.139 9.328L160.619 8.416C160.891 8.6 161.227 8.756 161.627 8.884C162.027 9.012 162.435 9.076 162.851 9.076C163.387 9.076 163.771 9 164.003 8.848C164.243 8.696 164.363 8.484 164.363 8.212C164.363 8.012 164.291 7.856 164.147 7.744C164.003 7.632 163.811 7.548 163.571 7.492C163.339 7.436 163.079 7.388 162.791 7.348C162.503 7.3 162.215 7.244 161.927 7.18C161.639 7.108 161.375 7.012 161.135 6.892C160.895 6.764 160.703 6.592 160.559 6.376C160.415 6.152 160.343 5.856 160.343 5.488C160.343 5.104 160.451 4.768 160.667 4.48C160.883 4.192 161.187 3.972 161.579 3.82C161.979 3.66 162.451 3.58 162.995 3.58C163.411 3.58 163.831 3.632 164.255 3.736C164.687 3.832 165.039 3.972 165.311 4.156L164.819 5.068C164.531 4.876 164.231 4.744 163.919 4.672C163.607 4.6 163.295 4.564 162.983 4.564C162.479 4.564 162.103 4.648 161.855 4.816C161.607 4.976 161.483 5.184 161.483 5.44C161.483 5.656 161.555 5.824 161.699 5.944C161.851 6.056 162.043 6.144 162.275 6.208C162.515 6.272 162.779 6.328 163.067 6.376C163.355 6.416 163.643 6.472 163.931 6.544C164.219 6.608 164.479 6.7 164.711 6.82C164.951 6.94 165.143 7.108 165.287 7.324C165.439 7.54 165.515 7.828 165.515 8.188C165.515 8.572 165.403 8.904 165.179 9.184C164.955 9.464 164.639 9.684 164.231 9.844C163.823 9.996 163.335 10.072 162.767 10.072ZM171.521 10L169.157 3.64H170.249L172.349 9.4H171.833L174.017 3.64H174.989L177.125 9.4H176.621L178.769 3.64H179.801L177.425 10H176.321L174.317 4.744H174.653L172.625 10H171.521ZM183.626 10.072C182.946 10.072 182.346 9.932 181.826 9.652C181.314 9.372 180.914 8.988 180.626 8.5C180.346 8.012 180.206 7.452 180.206 6.82C180.206 6.188 180.342 5.628 180.614 5.14C180.894 4.652 181.274 4.272 181.754 4C182.242 3.72 182.79 3.58 183.398 3.58C184.014 3.58 184.558 3.716 185.03 3.988C185.502 4.26 185.87 4.644 186.134 5.14C186.406 5.628 186.542 6.2 186.542 6.856C186.542 6.904 186.538 6.96 186.53 7.024C186.53 7.088 186.526 7.148 186.518 7.204H181.106V6.376H185.918L185.45 6.664C185.458 6.256 185.374 5.892 185.198 5.572C185.022 5.252 184.778 5.004 184.466 4.828C184.162 4.644 183.806 4.552 183.398 4.552C182.998 4.552 182.642 4.644 182.33 4.828C182.018 5.004 181.774 5.256 181.598 5.584C181.422 5.904 181.334 6.272 181.334 6.688V6.88C181.334 7.304 181.43 7.684 181.622 8.02C181.822 8.348 182.098 8.604 182.45 8.788C182.802 8.972 183.206 9.064 183.662 9.064C184.038 9.064 184.378 9 184.682 8.872C184.994 8.744 185.266 8.552 185.498 8.296L186.134 9.04C185.846 9.376 185.486 9.632 185.054 9.808C184.63 9.984 184.154 10.072 183.626 10.072ZM191.514 10.072C190.97 10.072 190.478 9.952 190.038 9.712C189.606 9.464 189.262 9.1 189.006 8.62C188.758 8.14 188.634 7.54 188.634 6.82C188.634 6.1 188.762 5.5 189.018 5.02C189.282 4.54 189.63 4.18 190.062 3.94C190.502 3.7 190.986 3.58 191.514 3.58C192.138 3.58 192.69 3.716 193.17 3.988C193.65 4.26 194.03 4.64 194.31 5.128C194.59 5.608 194.73 6.172 194.73 6.82C194.73 7.468 194.59 8.036 194.31 8.524C194.03 9.012 193.65 9.392 193.17 9.664C192.69 9.936 192.138 10.072 191.514 10.072ZM188.142 10V1.096H189.294V5.332L189.174 6.808L189.246 8.284V10H188.142ZM191.418 9.064C191.826 9.064 192.19 8.972 192.51 8.788C192.838 8.604 193.094 8.344 193.278 8.008C193.47 7.664 193.566 7.268 193.566 6.82C193.566 6.364 193.47 5.972 193.278 5.644C193.094 5.308 192.838 5.048 192.51 4.864C192.19 4.68 191.826 4.588 191.418 4.588C191.018 4.588 190.654 4.68 190.326 4.864C190.006 5.048 189.75 5.308 189.558 5.644C189.374 5.972 189.282 6.364 189.282 6.82C189.282 7.268 189.374 7.664 189.558 8.008C189.75 8.344 190.006 8.604 190.326 8.788C190.654 8.972 191.018 9.064 191.418 9.064ZM198.146 10.072C197.618 10.072 197.114 10 196.634 9.856C196.162 9.712 195.79 9.536 195.518 9.328L195.998 8.416C196.27 8.6 196.606 8.756 197.006 8.884C197.406 9.012 197.814 9.076 198.23 9.076C198.766 9.076 199.15 9 199.382 8.848C199.622 8.696 199.742 8.484 199.742 8.212C199.742 8.012 199.67 7.856 199.526 7.744C199.382 7.632 199.19 7.548 198.95 7.492C198.718 7.436 198.458 7.388 198.17 7.348C197.882 7.3 197.594 7.244 197.306 7.18C197.018 7.108 196.754 7.012 196.514 6.892C196.274 6.764 196.082 6.592 195.938 6.376C195.794 6.152 195.722 5.856 195.722 5.488C195.722 5.104 195.83 4.768 196.046 4.48C196.262 4.192 196.566 3.972 196.958 3.82C197.358 3.66 197.83 3.58 198.374 3.58C198.79 3.58 199.21 3.632 199.634 3.736C200.066 3.832 200.418 3.972 200.69 4.156L200.198 5.068C199.91 4.876 199.61 4.744 199.298 4.672C198.986 4.6 198.674 4.564 198.362 4.564C197.858 4.564 197.482 4.648 197.234 4.816C196.986 4.976 196.862 5.184 196.862 5.44C196.862 5.656 196.934 5.824 197.078 5.944C197.23 6.056 197.422 6.144 197.654 6.208C197.894 6.272 198.158 6.328 198.446 6.376C198.734 6.416 199.022 6.472 199.31 6.544C199.598 6.608 199.858 6.7 200.09 6.82C200.33 6.94 200.522 7.108 200.666 7.324C200.818 7.54 200.894 7.828 200.894 8.188C200.894 8.572 200.782 8.904 200.558 9.184C200.334 9.464 200.018 9.684 199.61 9.844C199.202 9.996 198.714 10.072 198.146 10.072ZM202.333 10V3.64H203.485V10H202.333ZM202.909 2.416C202.685 2.416 202.497 2.344 202.345 2.2C202.201 2.056 202.129 1.88 202.129 1.672C202.129 1.456 202.201 1.276 202.345 1.132C202.497 0.988 202.685 0.916 202.909 0.916C203.133 0.916 203.317 0.988 203.461 1.132C203.613 1.268 203.689 1.44 203.689 1.648C203.689 1.864 203.617 2.048 203.473 2.2C203.329 2.344 203.141 2.416 202.909 2.416ZM207.869 10.072C207.229 10.072 206.733 9.9 206.381 9.556C206.029 9.212 205.853 8.72 205.853 8.08V2.248H207.005V8.032C207.005 8.376 207.089 8.64 207.257 8.824C207.433 9.008 207.681 9.1 208.001 9.1C208.361 9.1 208.661 9 208.901 8.8L209.261 9.628C209.085 9.78 208.873 9.892 208.625 9.964C208.385 10.036 208.133 10.072 207.869 10.072ZM204.773 4.588V3.64H208.829V4.588H204.773ZM213.275 10.072C212.595 10.072 211.995 9.932 211.475 9.652C210.963 9.372 210.563 8.988 210.275 8.5C209.995 8.012 209.855 7.452 209.855 6.82C209.855 6.188 209.991 5.628 210.263 5.14C210.543 4.652 210.923 4.272 211.403 4C211.891 3.72 212.439 3.58 213.047 3.58C213.663 3.58 214.207 3.716 214.679 3.988C215.151 4.26 215.519 4.644 215.783 5.14C216.055 5.628 216.191 6.2 216.191 6.856C216.191 6.904 216.187 6.96 216.179 7.024C216.179 7.088 216.175 7.148 216.167 7.204H210.755V6.376H215.567L215.099 6.664C215.107 6.256 215.023 5.892 214.847 5.572C214.671 5.252 214.427 5.004 214.115 4.828C213.811 4.644 213.455 4.552 213.047 4.552C212.647 4.552 212.291 4.644 211.979 4.828C211.667 5.004 211.423 5.256 211.247 5.584C211.071 5.904 210.983 6.272 210.983 6.688V6.88C210.983 7.304 211.079 7.684 211.271 8.02C211.471 8.348 211.747 8.604 212.099 8.788C212.451 8.972 212.855 9.064 213.311 9.064C213.687 9.064 214.027 9 214.331 8.872C214.643 8.744 214.915 8.552 215.147 8.296L215.783 9.04C215.495 9.376 215.135 9.632 214.703 9.808C214.279 9.984 213.803 10.072 213.275 10.072Z" fill="#F5F5F5"/>
</svg>
